<svg width="60" height="60" viewBox="0 0 60 60" fill="none" xmlns="http://www.w3.org/2000/svg">
<path d="M7.5 49.3075V52.5C7.5 53.163 7.76339 53.7989 8.23223 54.2678C8.70107 54.7366 9.33696 55 10 55H12.5C13.163 55 13.7989 54.7366 14.2678 54.2678C14.7366 53.7989 15 53.163 15 52.5V50H45V52.5C45 53.163 45.2634 53.7989 45.7322 54.2678C46.2011 54.7366 46.837 55 47.5 55H50C50.663 55 51.2989 54.7366 51.7678 54.2678C52.2366 53.7989 52.5 53.163 52.5 52.5V49.3075C53.2585 48.8725 53.8889 48.2453 54.3278 47.4891C54.7667 46.7329 54.9986 45.8744 55 45V37.5C55 35.4225 53.7325 33.645 51.93 32.8875L48.51 22.6275C48.0139 21.1337 47.0596 19.8343 45.7828 18.9138C44.506 17.9933 42.9715 17.4986 41.3975 17.5H18.6025C17.0285 17.4986 15.494 17.9933 14.2172 18.9138C12.9404 19.8343 11.9861 21.1337 11.49 22.6275L8.07 32.8875C7.16056 33.268 6.3839 33.9089 5.83767 34.7296C5.29143 35.5503 5 36.5142 5 37.5V45C5 46.845 6.01 48.44 7.5 49.3075ZM13.75 45C13.2574 44.9998 12.7696 44.9026 12.3146 44.714C11.8595 44.5253 11.4461 44.2489 11.0978 43.9004C10.3946 43.1967 9.99967 42.2424 10 41.2475C10.0003 40.2526 10.3959 39.2986 11.0996 38.5953C11.8033 37.8921 12.7576 37.4972 13.7525 37.4975C14.7474 37.4978 15.7014 37.8934 16.4047 38.5971C17.1079 39.3008 17.5028 40.2551 17.5025 41.25C17.5022 42.2449 17.1066 43.1989 16.4029 43.9022C15.6992 44.6054 14.7449 45.0003 13.75 45ZM46.25 45C45.2551 44.9997 44.3011 44.6041 43.5978 43.9004C42.8946 43.1967 42.4997 42.2424 42.5 41.2475C42.5003 40.2526 42.8959 39.2986 43.5996 38.5953C44.3033 37.8921 45.2576 37.4972 46.2525 37.4975C47.2474 37.4978 48.2014 37.8934 48.9047 38.5971C49.6079 39.3008 50.0028 40.2551 50.0025 41.25C50.0022 42.2449 49.6066 43.1989 48.9029 43.9022C48.1992 44.6054 47.2449 45.0003 46.25 45ZM18.6025 22.5H41.395C41.9199 22.4999 42.4315 22.665 42.8574 22.9719C43.2832 23.2788 43.6016 23.712 43.7675 24.21L46.5325 32.5H13.4675L16.23 24.21C16.5725 23.1875 17.5275 22.5 18.6025 22.5Z" fill="#2B858B"/>
<path d="M55 18.4701V13.1976L30.79 5.12756C30.2548 4.94926 29.6751 4.95719 29.145 5.15006L5 13.9301V19.2501L30.0375 10.1451L55 18.4701Z" fill="#2B858B"/>
</svg>
