<svg width="25" height="25" viewBox="0 0 25 25" fill="none" xmlns="http://www.w3.org/2000/svg">
<path d="M4.47523 12.5L13.3211 3.40938C13.3939 3.33612 13.4515 3.24915 13.4905 3.15349C13.5295 3.05783 13.5491 2.95539 13.5482 2.85209C13.5474 2.74879 13.526 2.64669 13.4855 2.5517C13.4449 2.4567 13.3859 2.37069 13.3118 2.29865C13.2378 2.22661 13.1502 2.16997 13.0541 2.13201C12.9581 2.09404 12.8554 2.07551 12.7521 2.07747C12.6489 2.07944 12.547 2.10187 12.4524 2.14346C12.3579 2.18506 12.2725 2.24499 12.2013 2.3198L2.82627 11.9552C2.68437 12.1011 2.60498 12.2965 2.60498 12.5C2.60498 12.7035 2.68437 12.8989 2.82627 13.0448L12.2013 22.6802C12.2725 22.755 12.3579 22.815 12.4524 22.8566C12.547 22.8981 12.6489 22.9206 12.7521 22.9225C12.8554 22.9245 12.9581 22.906 13.0541 22.868C13.1502 22.83 13.2378 22.7734 13.3118 22.7014C13.3859 22.6293 13.4449 22.5433 13.4855 22.4483C13.526 22.3533 13.5474 22.2512 13.5482 22.1479C13.5491 22.0446 13.5295 21.9422 13.4905 21.8465C13.4515 21.7509 13.3939 21.6639 13.3211 21.5906L4.47523 12.5Z" fill="#2B858B"/>
</svg>
