<svg width="60" height="60" viewBox="0 0 60 60" fill="none" xmlns="http://www.w3.org/2000/svg">
<path d="M53.8068 31.6113C54.7627 33.4258 55.3516 35.4109 55.5399 37.4531C55.7282 39.4953 55.5122 41.5546 54.9042 43.5133C54.2963 45.472 53.3083 47.2917 51.9967 48.8683C50.6852 50.445 49.0758 51.7478 47.2605 52.7021L42.247 55.3437L41.0142 55.9921C39.8816 56.5881 38.6271 56.9158 37.3477 56.9501C36.0684 56.9843 34.7982 56.7241 33.6353 56.1895L14.056 47.8247L15.8997 42.3548L27.5438 44.6041L21.5136 33.1455L11.8054 14.6989L16.5348 12.2108L26.243 30.6628L28.5791 29.4341L24.2992 21.296L29.026 18.8093L33.3057 26.9474L35.6418 25.7187L32.3371 19.4377L37.0666 16.9495L40.3713 23.2305L42.7086 21.9912L40.4405 17.6686L45.1686 15.1873L47.4366 19.5097L53.8055 31.6153L53.8068 31.6113ZM8.58628 17.1884C7.6038 16.205 6.93467 14.9527 6.66333 13.5894C6.392 12.2261 6.53063 10.813 7.06173 9.52839C7.59283 8.24381 8.49259 7.14537 9.64743 6.37172C10.8023 5.59806 12.1604 5.18388 13.5505 5.18145C14.6769 5.18271 15.7866 5.45415 16.7864 5.97298C17.7863 6.49181 18.6471 7.24291 19.2966 8.16322C19.9461 9.08354 20.3654 10.1462 20.5193 11.2621C20.6732 12.378 20.5571 13.5145 20.1809 14.5763L21.4217 16.9215C22.2517 15.5302 22.6984 13.9438 22.7165 12.3238C22.7345 10.7038 22.3233 9.10794 21.5246 7.6984C20.7259 6.28887 19.5682 5.11596 18.1692 4.29894C16.7702 3.48192 15.1798 3.04993 13.5597 3.04688C11.1857 3.04721 8.90429 3.96846 7.19572 5.61677C5.48714 7.26508 4.48458 9.5119 4.39903 11.8844C4.31347 14.2569 5.15159 16.5701 6.737 18.3372C8.32241 20.1043 10.5315 21.1875 12.8994 21.3588L11.6519 18.9867C10.4923 18.6612 9.43631 18.0417 8.58628 17.1884Z" fill="#2B858B"/>
</svg>
