<svg width="60" height="60" viewBox="0 0 60 60" fill="none" xmlns="http://www.w3.org/2000/svg">
<path d="M35 12.5C35.6471 12.5 36.2691 12.7509 36.735 13.2L36.9525 13.4375L46.2 25H47.5C49.413 24.9999 51.2538 25.7308 52.6456 27.0432C54.0375 28.3556 54.8753 30.1503 54.9875 32.06L55 32.5V42.5C55 43.163 54.7366 43.7989 54.2678 44.2678C53.7989 44.7366 53.163 45 52.5 45H49.5725C49.055 46.4621 48.097 47.7279 46.8304 48.6231C45.5639 49.5184 44.051 49.9991 42.5 49.9991C40.949 49.9991 39.4361 49.5184 38.1696 48.6231C36.903 47.7279 35.945 46.4621 35.4275 45H24.5725C24.055 46.4621 23.097 47.7279 21.8304 48.6231C20.5639 49.5184 19.051 49.9991 17.5 49.9991C15.949 49.9991 14.4361 49.5184 13.1696 48.6231C11.903 47.7279 10.945 46.4621 10.4275 45H7.5C6.83696 45 6.20107 44.7366 5.73223 44.2678C5.26339 43.7989 5 43.163 5 42.5V27.5L5.0175 27.2075L5.0375 27.0675L5.08 26.8725L5.11 26.7825L5.145 26.6575L10.18 14.0725C10.3653 13.6086 10.6854 13.2109 11.0989 12.9306C11.5124 12.6503 12.0004 12.5003 12.5 12.5H35ZM17.5 40C16.837 40 16.2011 40.2634 15.7322 40.7322C15.2634 41.2011 15 41.837 15 42.5C15 43.163 15.2634 43.7989 15.7322 44.2678C16.2011 44.7366 16.837 45 17.5 45C18.163 45 18.7989 44.7366 19.2678 44.2678C19.7366 43.7989 20 43.163 20 42.5C20 41.837 19.7366 41.2011 19.2678 40.7322C18.7989 40.2634 18.163 40 17.5 40ZM42.5 40C41.837 40 41.2011 40.2634 40.7322 40.7322C40.2634 41.2011 40 41.837 40 42.5C40 43.163 40.2634 43.7989 40.7322 44.2678C41.2011 44.7366 41.837 45 42.5 45C43.163 45 43.7989 44.7366 44.2678 44.2678C44.7366 43.7989 45 43.163 45 42.5C45 41.837 44.7366 41.2011 44.2678 40.7322C43.7989 40.2634 43.163 40 42.5 40ZM27.5 17.5H14.19L11.19 25H27.5V17.5ZM33.8 17.5H32.5V25H39.8L33.8 17.5Z" fill="#2B858B"/>
</svg>
